<?xml version="1.0" encoding="utf-8"?>
<!-- Generator: Adobe Illustrator 21.0.0, SVG Export Plug-In . SVG Version: 6.00 Build 0)  -->
<svg version="1.1" id="Layer_1" xmlns="http://www.w3.org/2000/svg" xmlns:xlink="http://www.w3.org/1999/xlink" x="0px" y="0px"
	 viewBox="0 0 280.9 327.7" style="enable-background:new 0 0 280.9 327.7;" xml:space="preserve">
<style type="text/css">
	.st0{fill:#464F58;}
	.st1{fill:#4EC1E0;}
</style>
<path class="st0" d="M188.8,72.1c-18.6-23.7-37.2-34.5-48.3-63.7c-11.1,29.2-29.7,40.1-48.3,63.7c-19.7,24.4-18.2,60.1,4.4,82.8
	c12.1,12.1,28,18.2,43.9,18.2c15.9,0,31.7-6.1,43.9-18.2C207,132.3,208.4,96.5,188.8,72.1"/>
<path class="st1" d="M217.9,111c-0.3,0-0.7,0-1,0c0,19.6-7.5,39.2-22.4,54.1c-14.4,14.4-33.6,22.4-54,22.4c-20.4,0-39.6-7.9-54-22.4
	C71.5,150.2,64,130.6,64,111c-0.3,0-0.7,0-1,0c-31.3,0-56.8,25.4-56.8,56.8c0,28.9,21.6,52.7,49.5,56.3c-2.2-3.9-3.5-8.4-3.5-13.2
	c0-14.6,11.9-26.5,26.5-26.5c3.7,0,7.3,0.8,10.5,2.2c8,3.5,14,10.8,15.6,19.6c0.3,1.5,0.4,3.1,0.4,4.7c0,2.3-0.3,4.5-0.9,6.6
	c-3.8,0.6-6.8,3.9-6.8,8c0,4.5,3.6,8.1,8.1,8.1h4.2c0.6,1.5,1,3.2,1,5c0,0.2,0,0.5,0,0.7c-0.4,7.2-6.3,12.9-13.5,12.9
	c-3,0-5.8-1-8.1-2.7c-3.3-2.5-5.5-6.4-5.5-10.9c0-0.6,0-1.1,0.1-1.7c0.3-2.5,1.3-4.8,2.8-6.7c-5.8,0.5-11.2,2.7-15.6,6
	c-7.2,5.5-11.9,14.2-11.9,23.9c0,16.6,13.5,30.1,30.1,30.1h0c9.2,0,17.4-4.1,22.9-10.6c0,0,0,0,0,0c0.3,0.8,0.6,1.5,0.9,2.2
	c0,0,0,0.1,0.1,0.1c0.3,0.7,0.7,1.4,1,2.1c0.1,0.2,0.3,0.4,0.4,0.7c0.3,0.5,0.6,1,0.9,1.5c0.5,0.7,1,1.4,1.6,2.1
	c0.5,0.7,1,1.3,1.6,1.9c0,0,0,0,0,0c0.4,0.5,0.9,1,1.3,1.5c0.1,0.1,0.2,0.2,0.3,0.4c0.4,0.5,0.9,1,1.3,1.5c0.1,0.1,0.2,0.2,0.3,0.3
	c0.5,0.5,1,1,1.4,1.6c0,0,0.1,0.1,0.1,0.1c1.7,1.8,3.4,3.6,5.1,5.3c0.1,0.1,0.2,0.2,0.3,0.3c0.4,0.4,0.8,0.8,1.2,1.3
	c0.2,0.2,0.3,0.3,0.5,0.5c0.3,0.4,0.7,0.8,1,1.1c0.2,0.2,0.3,0.4,0.5,0.6c0.3,0.4,0.6,0.7,0.9,1.1c0.2,0.2,0.4,0.4,0.5,0.7
	c0.3,0.4,0.6,0.7,0.8,1.1c0.2,0.2,0.4,0.5,0.5,0.7c0.3,0.4,0.5,0.8,0.8,1.2c0.2,0.2,0.3,0.5,0.5,0.7c0.3,0.4,0.5,0.8,0.8,1.3
	c0.2,0.3,0.3,0.5,0.5,0.8c0.3,0.5,0.5,0.9,0.8,1.4c0.1,0.2,0.3,0.5,0.4,0.7c0.3,0.6,0.6,1.2,0.8,1.8c0.1,0.2,0.2,0.4,0.3,0.6
	c0.4,0.8,0.7,1.6,1,2.5l0,0c0.1-0.2,0.2-0.4,0.3-0.7c0.2-0.6,0.5-1.2,0.7-1.8c0.2-0.3,0.3-0.7,0.5-1c0.2-0.4,0.4-0.9,0.6-1.3
	c0.2-0.3,0.3-0.7,0.5-1c0.2-0.4,0.4-0.8,0.6-1.2c0.2-0.3,0.4-0.6,0.6-0.9c0.2-0.4,0.4-0.7,0.7-1.1c0.2-0.3,0.4-0.6,0.6-0.9
	c0.2-0.4,0.5-0.7,0.7-1c0.2-0.3,0.4-0.5,0.6-0.8c0.3-0.3,0.5-0.7,0.8-1c0.2-0.3,0.4-0.5,0.6-0.7c0.3-0.3,0.6-0.7,0.8-1
	c0.2-0.2,0.4-0.4,0.6-0.7c0.3-0.4,0.6-0.7,0.9-1.1c0.2-0.2,0.3-0.4,0.5-0.6c0.4-0.4,0.7-0.8,1.1-1.2c0.1-0.1,0.2-0.2,0.3-0.4
	c2.1-2.3,4.4-4.5,6.6-7c0,0,0.1-0.1,0.1-0.1c0.5-0.5,1-1.1,1.5-1.7c0,0,0.1-0.1,0.1-0.1c1-1.2,2-2.4,3.1-3.7c0,0,0.1-0.1,0.1-0.2
	c0.5-0.6,1-1.3,1.4-2c0.4-0.5,0.7-1.1,1-1.6c0.1-0.2,0.2-0.4,0.3-0.5c0.4-0.7,0.7-1.4,1.1-2.1c0,0,0,0,0-0.1
	c0.3-0.7,0.6-1.5,0.9-2.3c5.5,6.5,13.7,10.6,22.9,10.6c16.6,0,30.1-13.5,30.1-30.1c0-9.8-4.7-18.4-11.9-23.9
	c-4.4-3.4-9.8-5.5-15.6-6c1.5,1.9,2.5,4.2,2.8,6.7c0.1,0.6,0.1,1.1,0.1,1.7c0,4.5-2.2,8.4-5.5,10.9c-2.3,1.7-5.1,2.7-8.1,2.7
	c-7.3,0-13.2-5.7-13.5-12.9c0-0.2,0-0.5,0-0.7c0-1.8,0.4-3.4,1-5h4.2c4.5,0,8.1-3.6,8.1-8.1c0-4-2.9-7.3-6.8-8
	c-0.6-2.1-0.9-4.3-0.9-6.6c0-1.6,0.2-3.2,0.4-4.7c1.6-8.9,7.6-16.2,15.6-19.6c3.2-1.4,6.8-2.2,10.5-2.2c14.6,0,26.5,11.9,26.5,26.5
	c0,4.8-1.3,9.3-3.5,13.2c27.9-3.6,49.5-27.4,49.5-56.3C274.7,136.4,249.3,111,217.9,111"/>
</svg>
